<?xml version="1.0" encoding="utf-8"?>
<!-- Generator: Adobe Illustrator 15.1.0, SVG Export Plug-In  -->
<!DOCTYPE svg PUBLIC "-//W3C//DTD SVG 1.1//EN" "http://www.w3.org/Graphics/SVG/1.1/DTD/svg11.dtd" [
	<!ENTITY ns_flows "http://ns.adobe.com/Flows/1.0/">
]>
<svg version="1.1"
	 xmlns="http://www.w3.org/2000/svg" xmlns:xlink="http://www.w3.org/1999/xlink" xmlns:a="http://ns.adobe.com/AdobeSVGViewerExtensions/3.0/"
	 x="0px" y="0px" width="320px" height="76px" viewBox="-7.369 -7.719 320 76" enable-background="new -7.369 -7.719 320 76"
	 xml:space="preserve">
<defs>
</defs>
<g>
	<g>
		<g>
			<path fill="#FFFFFF" d="M200.504,26.799c0,1.656-0.008,3.043,0.006,4.431c0.002,0.187,0.045,0.468,0.168,0.542
				c1.674,1.018,0.771,2.627,1.047,4.088c-3.516,0-6.93,0-10.492,0c0-0.992-0.006-1.998,0.008-3.004
				c0-0.143,0.055-0.364,0.152-0.414c1.316-0.66,1.053-1.886,1.064-2.986c0.025-2.462,0.02-4.925,0-7.387
				c-0.006-0.854,0.033-1.745-0.92-2.244c-0.16-0.083-0.289-0.376-0.295-0.577c-0.031-0.965-0.014-1.932-0.014-2.982
				c3.67,0,7.186-0.026,10.701,0.039c0.373,0.007,0.85,0.47,1.09,0.842c1.707,2.663,3.365,5.358,5.043,8.041
				c0.133,0.211,0.297,0.404,0.602,0.817c0-1.843,0.014-3.424-0.014-5.003c-0.006-0.25-0.135-0.633-0.32-0.724
				c-1.916-0.937-0.678-2.577-1.072-3.948c3.67,0,7.172,0,10.85,0c0,1.016,0.008,2.013-0.008,3.011
				c-0.002,0.139-0.064,0.348-0.166,0.403c-1.406,0.764-1.244,2.077-1.238,3.365c0.018,4.218,0.006,8.436,0.006,12.795
				c-0.432,0.021-0.803,0.055-1.176,0.055c-2.543,0.005-5.086-0.029-7.627,0.021c-0.793,0.016-1.279-0.227-1.717-0.896
				c-1.625-2.484-3.309-4.931-4.977-7.389C201.041,27.457,200.846,27.236,200.504,26.799z"/>
		</g>
		<g>
			<path fill="#FFFFFF" d="M161.98,16.32c4.215,0,8.268,0,12.488,0c0,1.038,0.004,2.036-0.004,3.035
				c0,0.111-0.031,0.287-0.104,0.323c-1.402,0.697-0.973,2.004-0.996,3.114c-0.051,2.384-0.039,4.77-0.004,7.154
				c0.027,1.787,0.912,2.451,2.654,2.1c0.791-0.16,1.297-0.592,1.301-1.416c0.02-3.205,0.012-6.409,0.002-9.613
				c0-0.226-0.029-0.563-0.172-0.662c-1.563-1.075-0.598-2.611-0.902-4.014c3.996,0,7.848,0,11.863,0
				c0,1.019,0.006,2.019-0.01,3.018c-0.002,0.136-0.082,0.344-0.188,0.394c-1.188,0.568-1,1.651-1.006,2.65
				c-0.014,2.385,0.02,4.77-0.014,7.154c-0.049,3.25-1.264,5.011-4.369,5.836c-4.842,1.288-9.748,1.418-14.607,0.069
				c-3.4-0.943-4.506-2.537-4.508-6.037c0-2.541-0.004-5.083-0.002-7.624c0.002-0.819-0.121-1.545-0.994-1.946
				c-0.209-0.097-0.396-0.466-0.41-0.72C161.949,18.245,161.98,17.348,161.98,16.32z"/>
		</g>
		<g>
			<path fill="#FFFFFF" d="M249.377,35.878c0-1.018-0.01-1.985,0.01-2.952c0.004-0.175,0.078-0.448,0.199-0.505
				c1.146-0.533,1.008-1.562,1.01-2.529c0.006-2.736,0.045-5.472-0.043-8.204c-0.02-0.607-0.508-1.201-0.787-1.797
				c-0.123-0.259-0.359-0.505-0.373-0.766c-0.047-0.89-0.018-1.785-0.018-2.768c8.229,0,16.369,0,24.578,0c0,2.127,0,4.211,0,6.363
				c-3.066,0-6.063,0-9.059,0c-0.756-2.235-1.111-2.443-3.838-2.181c0,1.088,0,2.187,0,3.399c2.115,0,4.17,0,6.297,0
				c0,1.298,0,2.482,0,3.793c-2.115,0-4.168,0-6.287,0c0,1.355,0,2.585,0,3.806c2.508,0.576,3.414-0.066,3.773-2.689
				c3.02,0,6.047,0,9.127,0c0,2.364,0,4.656,0,7.029C265.813,35.878,257.697,35.878,249.377,35.878z"/>
		</g>
		<g>
			<path fill="#FFFFFF" d="M134.519,28.932c3.363,0,6.554,0,9.812,0c0.022,0.332,0.047,0.596,0.058,0.86
				c0.082,2.014,1.502,2.935,3.357,2.075c0.456-0.211,1-0.838,0.997-1.271c-0.003-0.489-0.479-1.262-0.918-1.411
				c-1.729-0.586-3.523-0.982-5.297-1.436c-1.702-0.436-3.427-0.795-5.107-1.301c-1.845-0.555-3.191-1.64-3.354-3.751
				c-0.177-2.28,0.615-4.07,2.66-5.194c2.374-1.304,5.005-1.479,7.628-1.573c4.329-0.157,8.589,0.258,12.726,1.662
				c0.875,0.297,1.268,0.682,1.188,1.653c-0.098,1.162-0.023,2.339-0.023,3.607c-3.172,0-6.275,0-9.442,0
				c-0.035-0.124-0.119-0.268-0.11-0.406c0.141-2.176-1.408-2.556-3.168-2.19c-0.437,0.09-1.027,0.605-1.089,0.996
				c-0.058,0.375,0.396,1.101,0.771,1.223c1.626,0.531,3.305,0.904,4.968,1.322c1.817,0.456,3.65,0.85,5.453,1.358
				c2.234,0.631,3.322,2.209,3.441,4.491c0.119,2.293-0.795,4.028-2.846,5.104c-2.463,1.296-5.168,1.5-7.869,1.575
				c-4.239,0.12-8.44-0.149-12.515-1.517c-1.007-0.338-1.452-0.799-1.348-1.918C134.61,31.619,134.519,30.326,134.519,28.932z"/>
		</g>
		<g>
			<path fill="#FFFFFF" d="M221.676,28.934c3.313,0,6.5,0,9.822,0c0.023,0.411-0.051,0.86,0.092,1.224
				c0.24,0.612,0.529,1.57,0.957,1.665c0.834,0.185,1.893,0.097,2.645-0.291c0.957-0.494,0.766-1.837-0.342-2.324
				c-1.238-0.544-2.576-0.88-3.895-1.219c-2.078-0.534-4.195-0.927-6.262-1.503c-1.895-0.529-3.299-1.64-3.471-3.789
				c-0.184-2.325,0.621-4.233,2.793-5.206c1.438-0.645,3.021-1.105,4.584-1.301c5.262-0.658,10.453-0.271,15.514,1.442
				c0.766,0.259,1.164,0.586,1.1,1.479c-0.09,1.234-0.023,2.48-0.023,3.778c-3.219,0-6.299,0-9.43,0
				c-0.043-0.234-0.094-0.454-0.119-0.677c-0.199-1.8-1.627-2.653-3.273-1.878c-0.367,0.172-0.822,0.676-0.805,1.005
				c0.02,0.402,0.42,1.004,0.789,1.128c1.547,0.521,3.139,0.914,4.723,1.321c1.814,0.466,3.648,0.854,5.453,1.353
				c2.178,0.602,3.314,2.115,3.482,4.342c0.178,2.38-0.76,4.185-2.906,5.296c-2.471,1.278-5.174,1.477-7.873,1.549
				c-4.16,0.111-8.279-0.188-12.271-1.537c-0.957-0.323-1.391-0.765-1.307-1.828C221.754,31.652,221.676,30.326,221.676,28.934z"/>
		</g>
		<g>
			<path fill="#FFFFFF" d="M274.561,60.079c-2.225,0-4.293,0-6.492,0c-0.293-1.489-0.588-2.974-0.875-4.458
				c-0.707-3.641-1.387-7.287-2.131-10.921c-0.184-0.893-0.689-1.723-0.842-2.616c-0.148-0.867-0.033-1.781-0.033-2.773
				c2.68,0,5.273,0,8.016,0c-0.104,1.381,0.434,2.805-0.436,4.146c-0.115,0.177-0.135,0.456-0.111,0.679
				c0.232,2.168,0.482,4.334,0.924,6.515c0.467-2.959,0.957-5.915,1.396-8.878c0.379-2.557,0.354-2.561,2.9-2.561
				c0.662,0,1.322,0,2.08,0c0.697,3.853,1.383,7.631,2.066,11.41c0.074-0.008,0.146-0.015,0.219-0.021
				c0.17-2.056,0.346-4.11,0.5-6.167c0.021-0.304,0.051-0.706-0.113-0.91c-1.045-1.3-0.355-2.759-0.57-4.228
				c2.449,0,4.773,0,7.273,0c-0.117,1.568,0.285,3.072-0.639,4.684c-0.717,1.248-0.75,2.9-1.033,4.384
				c-0.736,3.871-1.445,7.747-2.178,11.68c-2.18,0-4.314,0-6.541,0c-0.529-3.333-1.057-6.665-1.586-9.995
				c-0.066,0.006-0.135,0.012-0.201,0.019C275.629,53.371,275.102,56.677,274.561,60.079z"/>
		</g>
		<g>
			<path fill="#FFFFFF" d="M297.879,35.912c-4.563,0-8.967,0-13.527,0c0-1.012-0.051-1.979,0.033-2.936
				c0.025-0.266,0.479-0.478,0.693-0.748c0.34-0.426,0.908-0.873,0.918-1.322c0.078-3.437,0.043-6.875,0.037-10.314
				c0-0.064-0.078-0.127-0.121-0.191c-1.588,0.075-1.834,0.314-1.854,1.854c-0.012,0.928-0.002,1.857-0.002,2.853
				c-2.375,0-4.627,0-6.986,0c0-2.896,0-5.794,0-8.768c9.377,0,18.74,0,28.176,0c0,2.932,0,5.805,0,8.76c-2.326,0-4.613,0-7.086,0
				c0-0.962,0.014-1.922-0.004-2.881c-0.025-1.484-0.35-1.782-2.068-1.802c0,0.96,0,1.922,0,2.883c0,2.307,0.006,4.613,0.002,6.918
				c0,0.963,0.176,1.777,1.275,2.11c0.227,0.069,0.471,0.491,0.49,0.765C297.918,33.984,297.879,34.88,297.879,35.912z"/>
		</g>
		<g>
			<g>
				<path fill="#FFFFFF" d="M240.92,49.035c2.361-1.075,3.086-2.56,2.785-5.537c-0.227-2.241-1.375-3.748-3.773-3.948
					c-4.146-0.347-8.324-0.329-12.51-0.465c0,1.44-0.076,2.639,0.029,3.82c0.064,0.735,0.576,1.44,0.594,2.167
					c0.07,3.045,0.039,6.094,0.018,9.141c-0.004,0.537,0.027,1.192-0.248,1.59c-0.967,1.385-0.32,2.825-0.494,4.27
					c3.73,0,7.285,0.027,10.838-0.021c0.848-0.011,1.711-0.206,2.537-0.429c1.344-0.364,2.379-1.15,2.928-2.482
					C245.021,53.75,244.096,50.88,240.92,49.035z M234.598,43.541c0.936-0.123,1.928-0.225,2.305,0.693
					c0.275,0.668,0.285,1.643-0.004,2.3c-0.393,0.897-1.396,0.755-2.301,0.677C234.598,45.953,234.598,44.768,234.598,43.541z
					 M236.889,55.032c-0.361,0.853-1.373,0.829-2.305,0.641c0-1.47,0-2.891,0-4.409c1.094-0.064,2.186-0.01,2.479,1.018
					C237.303,53.126,237.232,54.221,236.889,55.032z"/>
			</g>
		</g>
		<g>
			<g>
				<path fill="#FFFFFF" d="M261.957,56.131c-0.299,2.199-1.699,3.722-3.891,3.968c-2.381,0.268-4.832,0.305-7.215,0.07
					c-2.561-0.252-4.168-1.979-4.289-4.528c-0.189-3.929-0.273-7.887-0.002-11.806c0.209-3.047,1.783-4.42,4.848-4.783
					c1.844-0.217,3.758-0.252,5.598-0.028c3.523,0.429,4.998,2.101,5.217,5.648c0.104,1.673,0.018,3.359,0.018,5.04
					C262.297,49.714,262.246,54.013,261.957,56.131z M255.715,49.697c0-1.602,0.023-3.203-0.01-4.804
					c-0.018-0.821-0.209-1.612-1.264-1.64c-0.998-0.025-1.264,0.721-1.273,1.496c-0.037,3.239-0.039,6.48-0.002,9.721
					c0.008,0.761,0.225,1.512,1.252,1.508c1.088-0.003,1.266-0.777,1.285-1.596C255.74,52.822,255.715,51.259,255.715,49.697z"/>
			</g>
		</g>
		<g>
			<path fill="#FFFFFF" d="M152.326,39.272c2.688,0,5.256,0,7.967,0c-0.188,1.446,0.488,2.897-0.543,4.2
				c-0.129,0.161-0.137,0.447-0.139,0.676c-0.008,3.439-0.01,6.878-0.002,10.316c0.002,0.268,0.004,0.635,0.164,0.779
				c0.342,0.307,0.783,0.673,1.189,0.679c0.344,0.005,0.861-0.394,1.002-0.736c0.213-0.519,0.215-1.146,0.219-1.727
				c0.02-2.657,0.061-5.316-0.02-7.972c-0.027-0.887-0.502-1.754-0.584-2.648c-0.107-1.148-0.027-2.313-0.027-3.551
				c2.424,0,4.83,0,7.422,0c-0.244,1.373,0.498,2.768-0.518,4.124c-0.344,0.459-0.268,1.276-0.277,1.931
				c-0.043,3.087,0.02,6.177-0.088,9.261c-0.117,3.384-2.066,5.368-5.455,5.771c-2.037,0.243-4.064,0.282-6.008-0.512
				c-1.922-0.786-3.23-2.176-3.332-4.289c-0.157-3.235-0.108-6.481-0.172-9.722c-0.021-1.063-0.059-2.03-0.695-3.086
				C151.917,41.917,152.326,40.511,152.326,39.272z"/>
		</g>
		<g>
			<path fill="#FFFFFF" d="M201.244,47.255c0,1.404,0,2.675,0,4.098c-1.326,0-2.629,0-3.998,0c0,1.461,0,2.77,0,4.076
				c1.77,0.396,2.188-0.088,2.402-2.854c1.916,0,3.842,0,5.863,0c0,2.478,0,4.946,0,7.477c-5.195,0-10.344,0-15.654,0
				c0.098-1.408-0.518-2.833,0.455-4.213c0.283-0.4,0.291-1.048,0.295-1.583c0.025-3.086,0.049-6.175-0.018-9.261
				c-0.016-0.688-0.498-1.356-0.594-2.057c-0.162-1.175-0.186-2.369-0.273-3.644c5.361,0,10.539,0,15.801,0c0,2.219,0,4.426,0,6.721
				c-1.953,0-3.883,0-5.807,0c-0.502-2.369-0.523-2.391-2.461-2.313c0,1.133,0,2.274,0,3.553
				C198.557,47.255,199.863,47.255,201.244,47.255z"/>
		</g>
		<g>
			<path fill="#FFFFFF" d="M134.446,52.626c2.217,0,4.235,0,6.334,0c0.037,0.711,0.037,1.367,0.115,2.014
				c0.091,0.758,0.382,1.369,1.316,1.316c0.891-0.052,1.337-0.677,1.232-1.4c-0.1-0.692-0.439-1.537-0.963-1.938
				c-0.747-0.57-1.751-0.813-2.655-1.168c-0.907-0.357-1.836-0.66-2.74-1.025c-2.592-1.043-3.094-3.195-2.954-5.662
				c0.159-2.824,1.386-4.725,3.718-5.406c3.939-1.15,7.731-0.588,11.322,1.338c0.305,0.164,0.609,0.633,0.625,0.975
				c0.068,1.477,0.029,2.959,0.029,4.529c-2.128,0-4.174,0-6.289,0c-0.067-0.573-0.014-1.197-0.237-1.695
				c-0.211-0.473-0.654-0.992-1.111-1.148c-0.31-0.105-1.1,0.313-1.18,0.625c-0.135,0.519-0.073,1.359,0.267,1.67
				c0.635,0.582,1.5,0.952,2.321,1.279c0.976,0.389,2.011,0.627,3.013,0.951c2.236,0.722,3.55,2.191,3.69,4.596
				c0.029,0.508,0.066,1.015,0.063,1.521c-0.027,3.55-1.377,5.401-4.833,6.168c-3.403,0.756-6.756,0.455-9.938-1.117
				c-0.814-0.402-1.24-0.902-1.171-1.9C134.522,55.679,134.446,54.198,134.446,52.626z"/>
		</g>
		<g>
			<path fill="#FFFFFF" d="M299.592,50.03c2.07,0,3.822,0,5.67,0c0,3.336,0,6.628,0,10.001c-4.994,0-9.973,0-15.096,0
				c0.15-1.44-0.477-2.889,0.477-4.271c0.256-0.371,0.217-0.982,0.219-1.483c0.018-3.085,0.045-6.172-0.018-9.257
				c-0.016-0.693-0.465-1.367-0.547-2.071c-0.141-1.182-0.146-2.38-0.213-3.656c2.836,0,5.512,0,8.352,0
				c-0.217,1.386,0.635,2.868-0.682,4.114c-0.217,0.205-0.275,0.656-0.277,0.994c-0.02,3.666-0.012,7.333-0.012,10.991
				c1.541,0.266,2.061-0.114,2.117-1.614C299.629,52.542,299.592,51.305,299.592,50.03z"/>
		</g>
		<g>
			<g>
				<path fill="#FFFFFF" d="M225.09,56.326c-0.105-0.866-0.561-1.699-0.611-2.563c-0.104-1.771-0.168-3.484-2.385-4.072
					c2.555-1.805,3.223-3.609,2.613-6.564c-0.369-1.777-1.352-3.002-3.133-3.404c-1.207-0.273-2.461-0.449-3.699-0.475
					c-3.232-0.064-6.469-0.021-9.854-0.021c0.219,1.533-0.49,3.027,0.6,4.358c0.168,0.204,0.139,0.602,0.139,0.91
					c0.01,3.399,0.014,6.8,0,10.199c-0.002,0.38-0.018,0.839-0.219,1.126c-0.961,1.37-0.32,2.82-0.48,4.239c2.752,0,5.322,0,7.941,0
					c0-1.301,0.42-2.716-0.092-3.574c-0.922-1.542-0.434-2.981-0.602-4.472c1.975-0.041,2.34,0.258,2.508,1.957
					c0.047,0.465,0.025,0.937,0.051,1.404c0.07,1.326,0.123,2.653,0.248,3.975c0.025,0.265,0.332,0.718,0.518,0.723
					c2.172,0.051,4.344,0.032,6.65,0.032C225.221,58.724,225.234,57.515,225.09,56.326z M217.799,47.056
					c-0.252,0.539-1.457,0.634-2.457,1.011c0-1.785,0-3.091,0-4.748c0.932,0.315,2.141,0.367,2.41,0.897
					C218.152,45.001,218.172,46.259,217.799,47.056z"/>
			</g>
		</g>
		<g>
			<g>
				<path fill="#FFFFFF" d="M187.582,44.258c-0.313-3.159-1.77-4.724-4.949-4.897c-3.736-0.203-7.494-0.047-11.342-0.047
					c0,1.22-0.088,2.388,0.029,3.534c0.088,0.851,0.619,1.669,0.645,2.511c0.086,2.85,0.045,5.703,0.021,8.555
					c-0.004,0.618,0.061,1.375-0.254,1.825c-0.971,1.392-0.342,2.841-0.518,4.272c2.844,0,5.547,0,8.32,0
					c0-1.072,0.027-2.047-0.018-3.018c-0.012-0.258-0.186-0.59-0.393-0.744c-0.75-0.561-0.742-1.27-0.58-2.244
					c1.422,0,2.791,0.093,4.146-0.021c2.975-0.247,4.58-1.744,4.896-4.71C187.766,47.62,187.744,45.917,187.582,44.258z
					 M178.52,49.68c0-1.994,0-3.991,0-5.987c1.965-0.174,2.471,0.252,2.512,2.104c0.012,0.547,0.012,1.095,0.002,1.643
					C181.004,49.324,180.58,49.715,178.52,49.68z"/>
			</g>
		</g>
	</g>
</g>
<path fill="#EE4223" d="M126.979,59.976c0-1.156,0-2.262,0-3.439c-0.502,0-24.264,0.012-35.758,0.016
	c-2.387,0-2.359-0.008-3.066-2.248c-0.207-0.657-0.114-0.924,0.562-1.164c7.591-2.695,15.167-5.43,22.752-8.14
	c3.37-1.204,6.761-2.351,10.119-3.585c0.571-0.21,1.253-0.634,1.473-1.138c0.214-0.489,0.07-1.31-0.222-1.804
	c-0.502-0.85-1.413-0.74-2.256-0.489c-8.377,2.495-16.753,4.995-25.131,7.487c-3.088,0.918-6.177,1.83-9.273,2.717
	c-0.262,0.076-0.712,0.046-0.854-0.121c-0.453-0.534-0.803-1.156-1.252-1.834c1.175-0.795,2.3-1.512,3.378-2.292
	c5.413-3.922,10.806-7.87,16.22-11.789c3.405-2.464,6.835-4.894,10.258-7.335c0.878-0.626,1.192-1.456,0.852-2.311
	c-0.321-0.809-1.188-1.277-2.133-1.067c-0.393,0.087-0.771,0.312-1.117,0.535c-9.45,6.097-18.895,12.202-28.34,18.306
	c-0.827,0.534-1.644,1.086-2.487,1.593c-0.188,0.112-0.547,0.182-0.694,0.079c-0.629-0.437-1.208-0.945-1.794-1.418
	c0.068-0.156,0.093-0.244,0.142-0.316c2.812-4.174,5.646-8.334,8.434-12.523c3.684-5.538,7.337-11.096,10.987-16.655
	c0.638-0.97,0.432-2.054-0.413-2.604c-0.861-0.56-1.847-0.325-2.57,0.633c-2.996,3.973-6.006,7.936-8.977,11.928
	c-3.74,5.025-7.444,10.077-11.171,15.114c-1.266,1.711-1.263,1.668-3.294,1.012c-0.76-0.246-0.944-0.545-0.733-1.332
	c2.201-8.208,4.367-16.425,6.54-24.64c0.777-2.94,1.569-5.877,2.318-8.825c0.293-1.153-0.234-2.004-1.295-2.267
	c-1.007-0.25-1.792,0.294-2.205,1.575c-3.531,10.954-7.069,21.907-10.56,32.875c-0.301,0.942-0.86,1.268-1.928,1.268
	c-1.066,0-1.627-0.325-1.927-1.268c-3.49-10.968-7.029-21.92-10.561-32.875c-0.413-1.281-1.197-1.825-2.204-1.575
	c-1.061,0.263-1.588,1.114-1.295,2.267c0.749,2.947,1.54,5.884,2.318,8.825c2.173,8.215,4.338,16.432,6.539,24.64
	c0.212,0.787,0.027,1.086-0.732,1.332c-2.032,0.656-2.028,0.699-3.295-1.012c-3.726-5.037-7.43-10.089-11.17-15.114
	c-2.972-3.992-5.98-7.955-8.977-11.928c-0.724-0.958-1.709-1.192-2.57-0.633c-0.846,0.55-1.051,1.634-0.414,2.604
	c3.651,5.56,7.305,11.117,10.988,16.655c2.788,4.189,5.622,8.35,8.434,12.523c0.049,0.072,0.073,0.16,0.142,0.316
	c-0.586,0.473-1.165,0.981-1.794,1.418c-0.147,0.103-0.507,0.033-0.694-0.079c-0.844-0.507-1.66-1.059-2.487-1.593
	c-9.445-6.104-18.891-12.209-28.341-18.306c-0.345-0.223-0.724-0.447-1.117-0.535c-0.943-0.21-1.811,0.258-2.133,1.067
	c-0.34,0.855-0.025,1.684,0.853,2.311c3.422,2.441,6.853,4.871,10.258,7.335c5.414,3.919,10.807,7.867,16.219,11.789
	c1.079,0.78,2.204,1.497,3.379,2.292c-0.449,0.678-0.799,1.3-1.253,1.834c-0.143,0.167-0.592,0.197-0.854,0.121
	c-3.097-0.887-6.186-1.799-9.273-2.717c-8.378-2.492-16.754-4.992-25.131-7.487c-0.844-0.251-1.754-0.36-2.256,0.489
	c-0.292,0.494-0.436,1.314-0.222,1.804c0.22,0.504,0.901,0.928,1.473,1.138C8.75,42.65,12.141,43.796,15.511,45
	c7.585,2.71,15.161,5.444,22.752,8.14c0.676,0.24,0.769,0.507,0.562,1.164c-0.707,2.24-0.68,2.248-3.066,2.248
	C24.263,56.548,0.502,56.537,0,56.537c0,1.156,0,2.243,0,3.377C5.873,59.914,121.281,59.976,126.979,59.976z"/>
</svg>
